<svg width="860" height="860" viewBox="0 0 860 860" xmlns="http://www.w3.org/2000/svg"><g fill="none" fill-rule="evenodd"><circle fill="#9B3820" cx="430" cy="430" r="430"/><path d="M751.196 363.766c4.46 21.546 6.804 43.866 6.804 66.734l-.023-2.812-330.292 330.3c-21.885-.184-43.258-2.515-63.919-6.792Zm3.657 112.317c-20.108 144.4-134.37 258.662-278.77 278.77Zm-35.226-199.545a325.598 325.598 0 0 1 21.323 49.389L325.927 740.95a325.598 325.598 0 0 1-49.39-21.323ZM430.5 103c112.69 0 212.086 56.916 271.011 143.57L246.57 701.51C159.916 642.586 103 543.19 103 430.5 103 249.627 249.627 103 430.5 103Z" fill="#EE7D20"/></g></svg>