<?xml version="1.0" standalone="no"?>
<!DOCTYPE svg PUBLIC "-//W3C//DTD SVG 20010904//EN"
 "http://www.w3.org/TR/2001/REC-SVG-20010904/DTD/svg10.dtd">
<svg version="1.0" xmlns="http://www.w3.org/2000/svg"
 width="700.000000pt" height="700.000000pt" viewBox="0 0 700.000000 700.000000"
 preserveAspectRatio="xMidYMid meet">
<metadata>
Created by potrace 1.14, written by Peter Selinger 2001-2017
</metadata>
<g transform="translate(0.000000,700.000000) scale(0.100000,-0.100000)"
fill="#000000" stroke="none">
<path d="M5374 6342 c-290 -121 -546 -326 -711 -569 -47 -69 -61 -83 -78 -78
-152 43 -193 49 -355 49 -147 0 -176 -3 -265 -27 -431 -115 -724 -458 -801
-937 -8 -52 -16 -95 -17 -96 -1 0 -31 -11 -67 -24 -385 -137 -673 -470 -781
-904 -26 -105 -36 -332 -20 -446 77 -523 465 -909 1046 -1042 l100 -22 1671
-3 1671 -3 31 87 c91 263 149 515 183 798 18 143 18 594 1 740 -118 1004 -612
1863 -1410 2453 -46 34 -89 62 -95 62 -7 0 -53 -18 -103 -38z"/>
</g>
</svg>
