<?xml version="1.0" encoding="utf-8"?>
<svg xmlns="http://www.w3.org/2000/svg" xmlns:xlink="http://www.w3.org/1999/xlink" style="background: none; display: block; position: relative; shape-rendering: auto;" width="163" height="163" preserveAspectRatio="xMidYMid" viewBox="0 0 163 163"><g transform="scale(0.64)"><g>
  <line x1="201.90121278545234" x2="185.4961356307566" y1="31.060769370813198" y2="47.465846525508944" stroke-width="2" stroke="#fff" stroke-linecap="round"></line><line x1="201.90121278545234" x2="185.4961356307566" y1="-480.9392306291868" y2="-464.53415347449106" stroke-width="2" stroke="#fff" stroke-linecap="round"></line><line x1="457.90121278545234" x2="441.4961356307566" y1="-480.9392306291868" y2="-464.53415347449106" stroke-width="2" stroke="#fff" stroke-linecap="round"></line><line x1="713.9012127854523" x2="697.4961356307566" y1="-480.9392306291868" y2="-464.53415347449106" stroke-width="2" stroke="#fff" stroke-linecap="round"></line><line x1="201.90121278545234" x2="185.4961356307566" y1="-224.9392306291868" y2="-208.53415347449106" stroke-width="2" stroke="#fff" stroke-linecap="round"></line><line x1="457.90121278545234" x2="441.4961356307566" y1="-224.9392306291868" y2="-208.53415347449106" stroke-width="2" stroke="#fff" stroke-linecap="round"></line><line x1="713.9012127854523" x2="697.4961356307566" y1="-224.9392306291868" y2="-208.53415347449106" stroke-width="2" stroke="#fff" stroke-linecap="round"></line><line x1="201.90121278545234" x2="185.4961356307566" y1="31.060769370813198" y2="47.465846525508944" stroke-width="2" stroke="#fff" stroke-linecap="round"></line><line x1="457.90121278545234" x2="441.4961356307566" y1="31.060769370813198" y2="47.465846525508944" stroke-width="2" stroke="#fff" stroke-linecap="round"></line><line x1="713.9012127854523" x2="697.4961356307566" y1="31.060769370813198" y2="47.465846525508944" stroke-width="2" stroke="#fff" stroke-linecap="round"></line><line x1="194.31906292304117" x2="183.0741607298592" y1="188.7969790542966" y2="200.04188124747859" stroke-width="2" stroke="#fff" stroke-linecap="round"></line><line x1="194.31906292304117" x2="183.0741607298592" y1="-323.20302094570343" y2="-311.9581187525214" stroke-width="2" stroke="#fff" stroke-linecap="round"></line><line x1="450.3190629230412" x2="439.07416072985916" y1="-323.20302094570343" y2="-311.9581187525214" stroke-width="2" stroke="#fff" stroke-linecap="round"></line><line x1="706.3190629230412" x2="695.0741607298592" y1="-323.20302094570343" y2="-311.9581187525214" stroke-width="2" stroke="#fff" stroke-linecap="round"></line><line x1="194.31906292304117" x2="183.0741607298592" y1="-67.2030209457034" y2="-55.958118752521415" stroke-width="2" stroke="#fff" stroke-linecap="round"></line><line x1="450.3190629230412" x2="439.07416072985916" y1="-67.2030209457034" y2="-55.958118752521415" stroke-width="2" stroke="#fff" stroke-linecap="round"></line><line x1="706.3190629230412" x2="695.0741607298592" y1="-67.2030209457034" y2="-55.958118752521415" stroke-width="2" stroke="#fff" stroke-linecap="round"></line><line x1="194.31906292304117" x2="183.0741607298592" y1="188.7969790542966" y2="200.04188124747859" stroke-width="2" stroke="#fff" stroke-linecap="round"></line><line x1="450.3190629230412" x2="439.07416072985916" y1="188.7969790542966" y2="200.04188124747859" stroke-width="2" stroke="#fff" stroke-linecap="round"></line><line x1="706.3190629230412" x2="695.0741607298592" y1="188.7969790542966" y2="200.04188124747859" stroke-width="2" stroke="#fff" stroke-linecap="round"></line><line x1="67.64044152066054" x2="59.06613726516258" y1="157.5963601959325" y2="166.17066445143047" stroke-width="2" stroke="#fff" stroke-linecap="round"></line><line x1="67.64044152066054" x2="59.06613726516258" y1="-354.4036398040675" y2="-345.82933554856953" stroke-width="2" stroke="#fff" stroke-linecap="round"></line><line x1="323.64044152066054" x2="315.0661372651626" y1="-354.4036398040675" y2="-345.82933554856953" stroke-width="2" stroke="#fff" stroke-linecap="round"></line><line x1="579.6404415206605" x2="571.0661372651625" y1="-354.4036398040675" y2="-345.82933554856953" stroke-width="2" stroke="#fff" stroke-linecap="round"></line><line x1="67.64044152066054" x2="59.06613726516258" y1="-98.4036398040675" y2="-89.82933554856953" stroke-width="2" stroke="#fff" stroke-linecap="round"></line><line x1="323.64044152066054" x2="315.0661372651626" y1="-98.4036398040675" y2="-89.82933554856953" stroke-width="2" stroke="#fff" stroke-linecap="round"></line><line x1="579.6404415206605" x2="571.0661372651625" y1="-98.4036398040675" y2="-89.82933554856953" stroke-width="2" stroke="#fff" stroke-linecap="round"></line><line x1="67.64044152066054" x2="59.06613726516258" y1="157.5963601959325" y2="166.17066445143047" stroke-width="2" stroke="#fff" stroke-linecap="round"></line><line x1="323.64044152066054" x2="315.0661372651626" y1="157.5963601959325" y2="166.17066445143047" stroke-width="2" stroke="#fff" stroke-linecap="round"></line><line x1="579.6404415206605" x2="571.0661372651625" y1="157.5963601959325" y2="166.17066445143047" stroke-width="2" stroke="#fff" stroke-linecap="round"></line><line x1="68.1992060147074" x2="58.1505462359069" y1="249.1840258292784" y2="259.2326856080789" stroke-width="2" stroke="#fff" stroke-linecap="round"></line><line x1="68.1992060147074" x2="58.1505462359069" y1="-262.8159741707216" y2="-252.7673143919211" stroke-width="2" stroke="#fff" stroke-linecap="round"></line><line x1="324.1992060147074" x2="314.1505462359069" y1="-262.8159741707216" y2="-252.7673143919211" stroke-width="2" stroke="#fff" stroke-linecap="round"></line><line x1="580.1992060147074" x2="570.1505462359069" y1="-262.8159741707216" y2="-252.7673143919211" stroke-width="2" stroke="#fff" stroke-linecap="round"></line><line x1="68.1992060147074" x2="58.1505462359069" y1="-6.815974170721603" y2="3.2326856080788957" stroke-width="2" stroke="#fff" stroke-linecap="round"></line><line x1="324.1992060147074" x2="314.1505462359069" y1="-6.815974170721603" y2="3.2326856080788957" stroke-width="2" stroke="#fff" stroke-linecap="round"></line><line x1="580.1992060147074" x2="570.1505462359069" y1="-6.815974170721603" y2="3.2326856080788957" stroke-width="2" stroke="#fff" stroke-linecap="round"></line><line x1="68.1992060147074" x2="58.1505462359069" y1="249.1840258292784" y2="259.2326856080789" stroke-width="2" stroke="#fff" stroke-linecap="round"></line><line x1="324.1992060147074" x2="314.1505462359069" y1="249.1840258292784" y2="259.2326856080789" stroke-width="2" stroke="#fff" stroke-linecap="round"></line><line x1="580.1992060147074" x2="570.1505462359069" y1="249.1840258292784" y2="259.2326856080789" stroke-width="2" stroke="#fff" stroke-linecap="round"></line><line x1="138.31089575789082" x2="134.29501488747138" y1="126.82479784482746" y2="130.8406787152469" stroke-width="2" stroke="#fff" stroke-linecap="round"></line><line x1="138.31089575789082" x2="134.29501488747138" y1="-385.17520215517254" y2="-381.1593212847531" stroke-width="2" stroke="#fff" stroke-linecap="round"></line><line x1="394.3108957578908" x2="390.2950148874714" y1="-385.17520215517254" y2="-381.1593212847531" stroke-width="2" stroke="#fff" stroke-linecap="round"></line><line x1="650.3108957578909" x2="646.2950148874713" y1="-385.17520215517254" y2="-381.1593212847531" stroke-width="2" stroke="#fff" stroke-linecap="round"></line><line x1="138.31089575789082" x2="134.29501488747138" y1="-129.17520215517254" y2="-125.1593212847531" stroke-width="2" stroke="#fff" stroke-linecap="round"></line><line x1="394.3108957578908" x2="390.2950148874714" y1="-129.17520215517254" y2="-125.1593212847531" stroke-width="2" stroke="#fff" stroke-linecap="round"></line><line x1="650.3108957578909" x2="646.2950148874713" y1="-129.17520215517254" y2="-125.1593212847531" stroke-width="2" stroke="#fff" stroke-linecap="round"></line><line x1="138.31089575789082" x2="134.29501488747138" y1="126.82479784482746" y2="130.8406787152469" stroke-width="2" stroke="#fff" stroke-linecap="round"></line><line x1="394.3108957578908" x2="390.2950148874714" y1="126.82479784482746" y2="130.8406787152469" stroke-width="2" stroke="#fff" stroke-linecap="round"></line><line x1="650.3108957578909" x2="646.2950148874713" y1="126.82479784482746" y2="130.8406787152469" stroke-width="2" stroke="#fff" stroke-linecap="round"></line><line x1="222.48634800788662" x2="212.4217996798935" y1="113.93431363369955" y2="123.99886196169264" stroke-width="2" stroke="#fff" stroke-linecap="round"></line><line x1="222.48634800788662" x2="212.4217996798935" y1="-398.06568636630044" y2="-388.0011380383074" stroke-width="2" stroke="#fff" stroke-linecap="round"></line><line x1="478.4863480078866" x2="468.4217996798935" y1="-398.06568636630044" y2="-388.0011380383074" stroke-width="2" stroke="#fff" stroke-linecap="round"></line><line x1="734.4863480078866" x2="724.4217996798935" y1="-398.06568636630044" y2="-388.0011380383074" stroke-width="2" stroke="#fff" stroke-linecap="round"></line><line x1="222.48634800788662" x2="212.4217996798935" y1="-142.06568636630044" y2="-132.00113803830737" stroke-width="2" stroke="#fff" stroke-linecap="round"></line><line x1="478.4863480078866" x2="468.4217996798935" y1="-142.06568636630044" y2="-132.00113803830737" stroke-width="2" stroke="#fff" stroke-linecap="round"></line><line x1="734.4863480078866" x2="724.4217996798935" y1="-142.06568636630044" y2="-132.00113803830737" stroke-width="2" stroke="#fff" stroke-linecap="round"></line><line x1="222.48634800788662" x2="212.4217996798935" y1="113.93431363369955" y2="123.99886196169264" stroke-width="2" stroke="#fff" stroke-linecap="round"></line><line x1="478.4863480078866" x2="468.4217996798935" y1="113.93431363369955" y2="123.99886196169264" stroke-width="2" stroke="#fff" stroke-linecap="round"></line><line x1="734.4863480078866" x2="724.4217996798935" y1="113.93431363369955" y2="123.99886196169264" stroke-width="2" stroke="#fff" stroke-linecap="round"></line><line x1="23.868550319656446" x2="8.980607550610717" y1="19.735985136622322" y2="34.62392790566805" stroke-width="2" stroke="#fff" stroke-linecap="round"></line><line x1="23.868550319656446" x2="8.980607550610717" y1="-492.26401486337767" y2="-477.37607209433196" stroke-width="2" stroke="#fff" stroke-linecap="round"></line><line x1="279.86855031965644" x2="264.9806075506107" y1="-492.26401486337767" y2="-477.37607209433196" stroke-width="2" stroke="#fff" stroke-linecap="round"></line><line x1="535.8685503196565" x2="520.9806075506107" y1="-492.26401486337767" y2="-477.37607209433196" stroke-width="2" stroke="#fff" stroke-linecap="round"></line><line x1="23.868550319656446" x2="8.980607550610717" y1="-236.26401486337767" y2="-221.37607209433196" stroke-width="2" stroke="#fff" stroke-linecap="round"></line><line x1="279.86855031965644" x2="264.9806075506107" y1="-236.26401486337767" y2="-221.37607209433196" stroke-width="2" stroke="#fff" stroke-linecap="round"></line><line x1="535.8685503196565" x2="520.9806075506107" y1="-236.26401486337767" y2="-221.37607209433196" stroke-width="2" stroke="#fff" stroke-linecap="round"></line><line x1="23.868550319656446" x2="8.980607550610717" y1="19.735985136622322" y2="34.62392790566805" stroke-width="2" stroke="#fff" stroke-linecap="round"></line><line x1="279.86855031965644" x2="264.9806075506107" y1="19.735985136622322" y2="34.62392790566805" stroke-width="2" stroke="#fff" stroke-linecap="round"></line><line x1="535.8685503196565" x2="520.9806075506107" y1="19.735985136622322" y2="34.62392790566805" stroke-width="2" stroke="#fff" stroke-linecap="round"></line><line x1="121.76319377730096" x2="115.0448951458763" y1="106.14342314688179" y2="112.86172177830645" stroke-width="2" stroke="#fff" stroke-linecap="round"></line><line x1="121.76319377730096" x2="115.0448951458763" y1="-405.8565768531182" y2="-399.13827822169355" stroke-width="2" stroke="#fff" stroke-linecap="round"></line><line x1="377.76319377730096" x2="371.0448951458763" y1="-405.8565768531182" y2="-399.13827822169355" stroke-width="2" stroke="#fff" stroke-linecap="round"></line><line x1="633.763193777301" x2="627.0448951458764" y1="-405.8565768531182" y2="-399.13827822169355" stroke-width="2" stroke="#fff" stroke-linecap="round"></line><line x1="121.76319377730096" x2="115.0448951458763" y1="-149.8565768531182" y2="-143.13827822169355" stroke-width="2" stroke="#fff" stroke-linecap="round"></line><line x1="377.76319377730096" x2="371.0448951458763" y1="-149.8565768531182" y2="-143.13827822169355" stroke-width="2" stroke="#fff" stroke-linecap="round"></line><line x1="633.763193777301" x2="627.0448951458764" y1="-149.8565768531182" y2="-143.13827822169355" stroke-width="2" stroke="#fff" stroke-linecap="round"></line><line x1="121.76319377730096" x2="115.0448951458763" y1="106.14342314688179" y2="112.86172177830645" stroke-width="2" stroke="#fff" stroke-linecap="round"></line><line x1="377.76319377730096" x2="371.0448951458763" y1="106.14342314688179" y2="112.86172177830645" stroke-width="2" stroke="#fff" stroke-linecap="round"></line><line x1="633.763193777301" x2="627.0448951458764" y1="106.14342314688179" y2="112.86172177830645" stroke-width="2" stroke="#fff" stroke-linecap="round"></line><line x1="167.53992142302084" x2="164.99145302617032" y1="212.6683158541483" y2="215.2167842509988" stroke-width="2" stroke="#fff" stroke-linecap="round"></line><line x1="167.53992142302084" x2="164.99145302617032" y1="-299.3316841458517" y2="-296.7832157490012" stroke-width="2" stroke="#fff" stroke-linecap="round"></line><line x1="423.5399214230208" x2="420.99145302617035" y1="-299.3316841458517" y2="-296.7832157490012" stroke-width="2" stroke="#fff" stroke-linecap="round"></line><line x1="679.5399214230208" x2="676.9914530261703" y1="-299.3316841458517" y2="-296.7832157490012" stroke-width="2" stroke="#fff" stroke-linecap="round"></line><line x1="167.53992142302084" x2="164.99145302617032" y1="-43.33168414585171" y2="-40.78321574900119" stroke-width="2" stroke="#fff" stroke-linecap="round"></line><line x1="423.5399214230208" x2="420.99145302617035" y1="-43.33168414585171" y2="-40.78321574900119" stroke-width="2" stroke="#fff" stroke-linecap="round"></line><line x1="679.5399214230208" x2="676.9914530261703" y1="-43.33168414585171" y2="-40.78321574900119" stroke-width="2" stroke="#fff" stroke-linecap="round"></line><line x1="167.53992142302084" x2="164.99145302617032" y1="212.6683158541483" y2="215.2167842509988" stroke-width="2" stroke="#fff" stroke-linecap="round"></line><line x1="423.5399214230208" x2="420.99145302617035" y1="212.6683158541483" y2="215.2167842509988" stroke-width="2" stroke="#fff" stroke-linecap="round"></line><line x1="679.5399214230208" x2="676.9914530261703" y1="212.6683158541483" y2="215.2167842509988" stroke-width="2" stroke="#fff" stroke-linecap="round"></line><line x1="192.26236573835837" x2="177.51015599541444" y1="78.97821077970893" y2="93.73042052265289" stroke-width="2" stroke="#fff" stroke-linecap="round"></line><line x1="192.26236573835837" x2="177.51015599541444" y1="-433.02178922029105" y2="-418.2695794773471" stroke-width="2" stroke="#fff" stroke-linecap="round"></line><line x1="448.26236573835837" x2="433.51015599541444" y1="-433.02178922029105" y2="-418.2695794773471" stroke-width="2" stroke="#fff" stroke-linecap="round"></line><line x1="704.2623657383583" x2="689.5101559954144" y1="-433.02178922029105" y2="-418.2695794773471" stroke-width="2" stroke="#fff" stroke-linecap="round"></line><line x1="192.26236573835837" x2="177.51015599541444" y1="-177.02178922029105" y2="-162.26957947734712" stroke-width="2" stroke="#fff" stroke-linecap="round"></line><line x1="448.26236573835837" x2="433.51015599541444" y1="-177.02178922029105" y2="-162.26957947734712" stroke-width="2" stroke="#fff" stroke-linecap="round"></line><line x1="704.2623657383583" x2="689.5101559954144" y1="-177.02178922029105" y2="-162.26957947734712" stroke-width="2" stroke="#fff" stroke-linecap="round"></line><line x1="192.26236573835837" x2="177.51015599541444" y1="78.97821077970893" y2="93.73042052265289" stroke-width="2" stroke="#fff" stroke-linecap="round"></line><line x1="448.26236573835837" x2="433.51015599541444" y1="78.97821077970893" y2="93.73042052265289" stroke-width="2" stroke="#fff" stroke-linecap="round"></line><line x1="704.2623657383583" x2="689.5101559954144" y1="78.97821077970893" y2="93.73042052265289" stroke-width="2" stroke="#fff" stroke-linecap="round"></line><line x1="32.90983784611451" x2="26.886660904419315" y1="247.65597257161954" y2="253.6791495133147" stroke-width="2" stroke="#fff" stroke-linecap="round"></line><line x1="32.90983784611451" x2="26.886660904419315" y1="-264.34402742838046" y2="-258.3208504866853" stroke-width="2" stroke="#fff" stroke-linecap="round"></line><line x1="288.9098378461145" x2="282.88666090441933" y1="-264.34402742838046" y2="-258.3208504866853" stroke-width="2" stroke="#fff" stroke-linecap="round"></line><line x1="544.9098378461146" x2="538.8866609044193" y1="-264.34402742838046" y2="-258.3208504866853" stroke-width="2" stroke="#fff" stroke-linecap="round"></line><line x1="32.90983784611451" x2="26.886660904419315" y1="-8.344027428380457" y2="-2.3208504866852877" stroke-width="2" stroke="#fff" stroke-linecap="round"></line><line x1="288.9098378461145" x2="282.88666090441933" y1="-8.344027428380457" y2="-2.3208504866852877" stroke-width="2" stroke="#fff" stroke-linecap="round"></line><line x1="544.9098378461146" x2="538.8866609044193" y1="-8.344027428380457" y2="-2.3208504866852877" stroke-width="2" stroke="#fff" stroke-linecap="round"></line><line x1="32.90983784611451" x2="26.886660904419315" y1="247.65597257161954" y2="253.6791495133147" stroke-width="2" stroke="#fff" stroke-linecap="round"></line><line x1="288.9098378461145" x2="282.88666090441933" y1="247.65597257161954" y2="253.6791495133147" stroke-width="2" stroke="#fff" stroke-linecap="round"></line><line x1="544.9098378461146" x2="538.8866609044193" y1="247.65597257161954" y2="253.6791495133147" stroke-width="2" stroke="#fff" stroke-linecap="round"></line><line x1="51.875149031621625" x2="44.28270999791868" y1="189.89593999642102" y2="197.48837903012395" stroke-width="2" stroke="#fff" stroke-linecap="round"></line><line x1="51.875149031621625" x2="44.28270999791868" y1="-322.104060003579" y2="-314.51162096987605" stroke-width="2" stroke="#fff" stroke-linecap="round"></line><line x1="307.8751490316216" x2="300.2827099979187" y1="-322.104060003579" y2="-314.51162096987605" stroke-width="2" stroke="#fff" stroke-linecap="round"></line><line x1="563.8751490316216" x2="556.2827099979187" y1="-322.104060003579" y2="-314.51162096987605" stroke-width="2" stroke="#fff" stroke-linecap="round"></line><line x1="51.875149031621625" x2="44.28270999791868" y1="-66.10406000357898" y2="-58.51162096987605" stroke-width="2" stroke="#fff" stroke-linecap="round"></line><line x1="307.8751490316216" x2="300.2827099979187" y1="-66.10406000357898" y2="-58.51162096987605" stroke-width="2" stroke="#fff" stroke-linecap="round"></line><line x1="563.8751490316216" x2="556.2827099979187" y1="-66.10406000357898" y2="-58.51162096987605" stroke-width="2" stroke="#fff" stroke-linecap="round"></line><line x1="51.875149031621625" x2="44.28270999791868" y1="189.89593999642102" y2="197.48837903012395" stroke-width="2" stroke="#fff" stroke-linecap="round"></line><line x1="307.8751490316216" x2="300.2827099979187" y1="189.89593999642102" y2="197.48837903012395" stroke-width="2" stroke="#fff" stroke-linecap="round"></line><line x1="563.8751490316216" x2="556.2827099979187" y1="189.89593999642102" y2="197.48837903012395" stroke-width="2" stroke="#fff" stroke-linecap="round"></line><line x1="39.924294295718674" x2="36.703944691451206" y1="194.20488692499273" y2="197.42523652926022" stroke-width="2" stroke="#fff" stroke-linecap="round"></line><line x1="39.924294295718674" x2="36.703944691451206" y1="-317.7951130750073" y2="-314.57476347073975" stroke-width="2" stroke="#fff" stroke-linecap="round"></line><line x1="295.92429429571865" x2="292.7039446914512" y1="-317.7951130750073" y2="-314.57476347073975" stroke-width="2" stroke="#fff" stroke-linecap="round"></line><line x1="551.9242942957187" x2="548.7039446914512" y1="-317.7951130750073" y2="-314.57476347073975" stroke-width="2" stroke="#fff" stroke-linecap="round"></line><line x1="39.924294295718674" x2="36.703944691451206" y1="-61.795113075007265" y2="-58.57476347073978" stroke-width="2" stroke="#fff" stroke-linecap="round"></line><line x1="295.92429429571865" x2="292.7039446914512" y1="-61.795113075007265" y2="-58.57476347073978" stroke-width="2" stroke="#fff" stroke-linecap="round"></line><line x1="551.9242942957187" x2="548.7039446914512" y1="-61.795113075007265" y2="-58.57476347073978" stroke-width="2" stroke="#fff" stroke-linecap="round"></line><line x1="39.924294295718674" x2="36.703944691451206" y1="194.20488692499273" y2="197.42523652926022" stroke-width="2" stroke="#fff" stroke-linecap="round"></line><line x1="295.92429429571865" x2="292.7039446914512" y1="194.20488692499273" y2="197.42523652926022" stroke-width="2" stroke="#fff" stroke-linecap="round"></line><line x1="551.9242942957187" x2="548.7039446914512" y1="194.20488692499273" y2="197.42523652926022" stroke-width="2" stroke="#fff" stroke-linecap="round"></line><line x1="77.74958290311515" x2="65.72440072055478" y1="247.86073252622177" y2="259.88591470878214" stroke-width="2" stroke="#fff" stroke-linecap="round"></line><line x1="77.74958290311515" x2="65.72440072055478" y1="-264.1392674737782" y2="-252.11408529121786" stroke-width="2" stroke="#fff" stroke-linecap="round"></line><line x1="333.74958290311514" x2="321.7244007205548" y1="-264.1392674737782" y2="-252.11408529121786" stroke-width="2" stroke="#fff" stroke-linecap="round"></line><line x1="589.7495829031152" x2="577.7244007205547" y1="-264.1392674737782" y2="-252.11408529121786" stroke-width="2" stroke="#fff" stroke-linecap="round"></line><line x1="77.74958290311515" x2="65.72440072055478" y1="-8.139267473778233" y2="3.8859147087821384" stroke-width="2" stroke="#fff" stroke-linecap="round"></line><line x1="333.74958290311514" x2="321.7244007205548" y1="-8.139267473778233" y2="3.8859147087821384" stroke-width="2" stroke="#fff" stroke-linecap="round"></line><line x1="589.7495829031152" x2="577.7244007205547" y1="-8.139267473778233" y2="3.8859147087821384" stroke-width="2" stroke="#fff" stroke-linecap="round"></line><line x1="77.74958290311515" x2="65.72440072055478" y1="247.86073252622177" y2="259.88591470878214" stroke-width="2" stroke="#fff" stroke-linecap="round"></line><line x1="333.74958290311514" x2="321.7244007205548" y1="247.86073252622177" y2="259.88591470878214" stroke-width="2" stroke="#fff" stroke-linecap="round"></line><line x1="589.7495829031152" x2="577.7244007205547" y1="247.86073252622177" y2="259.88591470878214" stroke-width="2" stroke="#fff" stroke-linecap="round"></line><line x1="162.07442000261094" x2="153.84304431832211" y1="236.8795522885924" y2="245.11092797288123" stroke-width="2" stroke="#fff" stroke-linecap="round"></line><line x1="162.07442000261094" x2="153.84304431832211" y1="-275.12044771140756" y2="-266.8890720271188" stroke-width="2" stroke="#fff" stroke-linecap="round"></line><line x1="418.07442000261096" x2="409.8430443183221" y1="-275.12044771140756" y2="-266.8890720271188" stroke-width="2" stroke="#fff" stroke-linecap="round"></line><line x1="674.074420002611" x2="665.8430443183221" y1="-275.12044771140756" y2="-266.8890720271188" stroke-width="2" stroke="#fff" stroke-linecap="round"></line><line x1="162.07442000261094" x2="153.84304431832211" y1="-19.120447711407593" y2="-10.889072027118772" stroke-width="2" stroke="#fff" stroke-linecap="round"></line><line x1="418.07442000261096" x2="409.8430443183221" y1="-19.120447711407593" y2="-10.889072027118772" stroke-width="2" stroke="#fff" stroke-linecap="round"></line><line x1="674.074420002611" x2="665.8430443183221" y1="-19.120447711407593" y2="-10.889072027118772" stroke-width="2" stroke="#fff" stroke-linecap="round"></line><line x1="162.07442000261094" x2="153.84304431832211" y1="236.8795522885924" y2="245.11092797288123" stroke-width="2" stroke="#fff" stroke-linecap="round"></line><line x1="418.07442000261096" x2="409.8430443183221" y1="236.8795522885924" y2="245.11092797288123" stroke-width="2" stroke="#fff" stroke-linecap="round"></line><line x1="674.074420002611" x2="665.8430443183221" y1="236.8795522885924" y2="245.11092797288123" stroke-width="2" stroke="#fff" stroke-linecap="round"></line><line x1="159.6332717650076" x2="145.01509353207692" y1="61.14534950990318" y2="75.76352774283387" stroke-width="2" stroke="#fff" stroke-linecap="round"></line><line x1="159.6332717650076" x2="145.01509353207692" y1="-450.85465049009684" y2="-436.23647225716616" stroke-width="2" stroke="#fff" stroke-linecap="round"></line><line x1="415.63327176500763" x2="401.0150935320769" y1="-450.85465049009684" y2="-436.23647225716616" stroke-width="2" stroke="#fff" stroke-linecap="round"></line><line x1="671.6332717650076" x2="657.0150935320769" y1="-450.85465049009684" y2="-436.23647225716616" stroke-width="2" stroke="#fff" stroke-linecap="round"></line><line x1="159.6332717650076" x2="145.01509353207692" y1="-194.85465049009682" y2="-180.23647225716613" stroke-width="2" stroke="#fff" stroke-linecap="round"></line><line x1="415.63327176500763" x2="401.0150935320769" y1="-194.85465049009682" y2="-180.23647225716613" stroke-width="2" stroke="#fff" stroke-linecap="round"></line><line x1="671.6332717650076" x2="657.0150935320769" y1="-194.85465049009682" y2="-180.23647225716613" stroke-width="2" stroke="#fff" stroke-linecap="round"></line><line x1="159.6332717650076" x2="145.01509353207692" y1="61.14534950990318" y2="75.76352774283387" stroke-width="2" stroke="#fff" stroke-linecap="round"></line><line x1="415.63327176500763" x2="401.0150935320769" y1="61.14534950990318" y2="75.76352774283387" stroke-width="2" stroke="#fff" stroke-linecap="round"></line><line x1="671.6332717650076" x2="657.0150935320769" y1="61.14534950990318" y2="75.76352774283387" stroke-width="2" stroke="#fff" stroke-linecap="round"></line><line x1="92.47729484449886" x2="82.06433329809872" y1="39.412322764999516" y2="49.825284311399656" stroke-width="2" stroke="#fff" stroke-linecap="round"></line><line x1="92.47729484449886" x2="82.06433329809872" y1="-472.58767723500046" y2="-462.1747156886004" stroke-width="2" stroke="#fff" stroke-linecap="round"></line><line x1="348.47729484449883" x2="338.06433329809875" y1="-472.58767723500046" y2="-462.1747156886004" stroke-width="2" stroke="#fff" stroke-linecap="round"></line><line x1="604.4772948444988" x2="594.0643332980987" y1="-472.58767723500046" y2="-462.1747156886004" stroke-width="2" stroke="#fff" stroke-linecap="round"></line><line x1="92.47729484449886" x2="82.06433329809872" y1="-216.58767723500048" y2="-206.17471568860034" stroke-width="2" stroke="#fff" stroke-linecap="round"></line><line x1="348.47729484449883" x2="338.06433329809875" y1="-216.58767723500048" y2="-206.17471568860034" stroke-width="2" stroke="#fff" stroke-linecap="round"></line><line x1="604.4772948444988" x2="594.0643332980987" y1="-216.58767723500048" y2="-206.17471568860034" stroke-width="2" stroke="#fff" stroke-linecap="round"></line><line x1="92.47729484449886" x2="82.06433329809872" y1="39.412322764999516" y2="49.825284311399656" stroke-width="2" stroke="#fff" stroke-linecap="round"></line><line x1="348.47729484449883" x2="338.06433329809875" y1="39.412322764999516" y2="49.825284311399656" stroke-width="2" stroke="#fff" stroke-linecap="round"></line><line x1="604.4772948444988" x2="594.0643332980987" y1="39.412322764999516" y2="49.825284311399656" stroke-width="2" stroke="#fff" stroke-linecap="round"></line>
  <animateTransform attributeName="transform" type="translate" values="0 0;-256 256" keyTimes="0;1" repeatCount="indefinite" dur="7.692307692307692s"></animateTransform>
</g><g>
  <line x1="147.35751265135252" x2="139.2548408459778" y1="132.62339055572824" y2="140.72606236110295" stroke-width="2" stroke="#fff" stroke-linecap="round"></line><line x1="147.35751265135252" x2="139.2548408459778" y1="-379.37660944427176" y2="-371.27393763889705" stroke-width="2" stroke="#fff" stroke-linecap="round"></line><line x1="403.3575126513525" x2="395.2548408459778" y1="-379.37660944427176" y2="-371.27393763889705" stroke-width="2" stroke="#fff" stroke-linecap="round"></line><line x1="659.3575126513525" x2="651.2548408459778" y1="-379.37660944427176" y2="-371.27393763889705" stroke-width="2" stroke="#fff" stroke-linecap="round"></line><line x1="147.35751265135252" x2="139.2548408459778" y1="-123.37660944427176" y2="-115.27393763889705" stroke-width="2" stroke="#fff" stroke-linecap="round"></line><line x1="403.3575126513525" x2="395.2548408459778" y1="-123.37660944427176" y2="-115.27393763889705" stroke-width="2" stroke="#fff" stroke-linecap="round"></line><line x1="659.3575126513525" x2="651.2548408459778" y1="-123.37660944427176" y2="-115.27393763889705" stroke-width="2" stroke="#fff" stroke-linecap="round"></line><line x1="147.35751265135252" x2="139.2548408459778" y1="132.62339055572824" y2="140.72606236110295" stroke-width="2" stroke="#fff" stroke-linecap="round"></line><line x1="403.3575126513525" x2="395.2548408459778" y1="132.62339055572824" y2="140.72606236110295" stroke-width="2" stroke="#fff" stroke-linecap="round"></line><line x1="659.3575126513525" x2="651.2548408459778" y1="132.62339055572824" y2="140.72606236110295" stroke-width="2" stroke="#fff" stroke-linecap="round"></line><line x1="209.59061900100826" x2="202.3057901514637" y1="225.9429873891634" y2="233.22781623870796" stroke-width="2" stroke="#fff" stroke-linecap="round"></line><line x1="209.59061900100826" x2="202.3057901514637" y1="-286.05701261083664" y2="-278.772183761292" stroke-width="2" stroke="#fff" stroke-linecap="round"></line><line x1="465.59061900100824" x2="458.3057901514637" y1="-286.05701261083664" y2="-278.772183761292" stroke-width="2" stroke="#fff" stroke-linecap="round"></line><line x1="721.5906190010082" x2="714.3057901514637" y1="-286.05701261083664" y2="-278.772183761292" stroke-width="2" stroke="#fff" stroke-linecap="round"></line><line x1="209.59061900100826" x2="202.3057901514637" y1="-30.05701261083661" y2="-22.77218376129204" stroke-width="2" stroke="#fff" stroke-linecap="round"></line><line x1="465.59061900100824" x2="458.3057901514637" y1="-30.05701261083661" y2="-22.77218376129204" stroke-width="2" stroke="#fff" stroke-linecap="round"></line><line x1="721.5906190010082" x2="714.3057901514637" y1="-30.05701261083661" y2="-22.77218376129204" stroke-width="2" stroke="#fff" stroke-linecap="round"></line><line x1="209.59061900100826" x2="202.3057901514637" y1="225.9429873891634" y2="233.22781623870796" stroke-width="2" stroke="#fff" stroke-linecap="round"></line><line x1="465.59061900100824" x2="458.3057901514637" y1="225.9429873891634" y2="233.22781623870796" stroke-width="2" stroke="#fff" stroke-linecap="round"></line><line x1="721.5906190010082" x2="714.3057901514637" y1="225.9429873891634" y2="233.22781623870796" stroke-width="2" stroke="#fff" stroke-linecap="round"></line><line x1="229.0989964703417" x2="219.2390328443892" y1="38.95910732108021" y2="48.81907094703271" stroke-width="2" stroke="#fff" stroke-linecap="round"></line><line x1="229.0989964703417" x2="219.2390328443892" y1="-473.0408926789198" y2="-463.18092905296726" stroke-width="2" stroke="#fff" stroke-linecap="round"></line><line x1="485.0989964703417" x2="475.23903284438916" y1="-473.0408926789198" y2="-463.18092905296726" stroke-width="2" stroke="#fff" stroke-linecap="round"></line><line x1="741.0989964703417" x2="731.2390328443892" y1="-473.0408926789198" y2="-463.18092905296726" stroke-width="2" stroke="#fff" stroke-linecap="round"></line><line x1="229.0989964703417" x2="219.2390328443892" y1="-217.0408926789198" y2="-207.1809290529673" stroke-width="2" stroke="#fff" stroke-linecap="round"></line><line x1="485.0989964703417" x2="475.23903284438916" y1="-217.0408926789198" y2="-207.1809290529673" stroke-width="2" stroke="#fff" stroke-linecap="round"></line><line x1="741.0989964703417" x2="731.2390328443892" y1="-217.0408926789198" y2="-207.1809290529673" stroke-width="2" stroke="#fff" stroke-linecap="round"></line><line x1="229.0989964703417" x2="219.2390328443892" y1="38.95910732108021" y2="48.81907094703271" stroke-width="2" stroke="#fff" stroke-linecap="round"></line><line x1="485.0989964703417" x2="475.23903284438916" y1="38.95910732108021" y2="48.81907094703271" stroke-width="2" stroke="#fff" stroke-linecap="round"></line><line x1="741.0989964703417" x2="731.2390328443892" y1="38.95910732108021" y2="48.81907094703271" stroke-width="2" stroke="#fff" stroke-linecap="round"></line><line x1="70.22016473348475" x2="55.71060855105821" y1="195.88426388944907" y2="210.3938200718756" stroke-width="2" stroke="#fff" stroke-linecap="round"></line><line x1="70.22016473348475" x2="55.71060855105821" y1="-316.1157361105509" y2="-301.6061799281244" stroke-width="2" stroke="#fff" stroke-linecap="round"></line><line x1="326.22016473348475" x2="311.7106085510582" y1="-316.1157361105509" y2="-301.6061799281244" stroke-width="2" stroke="#fff" stroke-linecap="round"></line><line x1="582.2201647334848" x2="567.7106085510582" y1="-316.1157361105509" y2="-301.6061799281244" stroke-width="2" stroke="#fff" stroke-linecap="round"></line><line x1="70.22016473348475" x2="55.71060855105821" y1="-60.11573611055093" y2="-45.60617992812439" stroke-width="2" stroke="#fff" stroke-linecap="round"></line><line x1="326.22016473348475" x2="311.7106085510582" y1="-60.11573611055093" y2="-45.60617992812439" stroke-width="2" stroke="#fff" stroke-linecap="round"></line><line x1="582.2201647334848" x2="567.7106085510582" y1="-60.11573611055093" y2="-45.60617992812439" stroke-width="2" stroke="#fff" stroke-linecap="round"></line><line x1="70.22016473348475" x2="55.71060855105821" y1="195.88426388944907" y2="210.3938200718756" stroke-width="2" stroke="#fff" stroke-linecap="round"></line><line x1="326.22016473348475" x2="311.7106085510582" y1="195.88426388944907" y2="210.3938200718756" stroke-width="2" stroke="#fff" stroke-linecap="round"></line><line x1="582.2201647334848" x2="567.7106085510582" y1="195.88426388944907" y2="210.3938200718756" stroke-width="2" stroke="#fff" stroke-linecap="round"></line><line x1="63.60771131639347" x2="53.86228455306145" y1="139.29242279471543" y2="149.03784955804747" stroke-width="2" stroke="#fff" stroke-linecap="round"></line><line x1="63.60771131639347" x2="53.86228455306145" y1="-372.70757720528457" y2="-362.96215044195253" stroke-width="2" stroke="#fff" stroke-linecap="round"></line><line x1="319.6077113163935" x2="309.86228455306144" y1="-372.70757720528457" y2="-362.96215044195253" stroke-width="2" stroke="#fff" stroke-linecap="round"></line><line x1="575.6077113163934" x2="565.8622845530615" y1="-372.70757720528457" y2="-362.96215044195253" stroke-width="2" stroke="#fff" stroke-linecap="round"></line><line x1="63.60771131639347" x2="53.86228455306145" y1="-116.70757720528457" y2="-106.96215044195253" stroke-width="2" stroke="#fff" stroke-linecap="round"></line><line x1="319.6077113163935" x2="309.86228455306144" y1="-116.70757720528457" y2="-106.96215044195253" stroke-width="2" stroke="#fff" stroke-linecap="round"></line><line x1="575.6077113163934" x2="565.8622845530615" y1="-116.70757720528457" y2="-106.96215044195253" stroke-width="2" stroke="#fff" stroke-linecap="round"></line><line x1="63.60771131639347" x2="53.86228455306145" y1="139.29242279471543" y2="149.03784955804747" stroke-width="2" stroke="#fff" stroke-linecap="round"></line><line x1="319.6077113163935" x2="309.86228455306144" y1="139.29242279471543" y2="149.03784955804747" stroke-width="2" stroke="#fff" stroke-linecap="round"></line><line x1="575.6077113163934" x2="565.8622845530615" y1="139.29242279471543" y2="149.03784955804747" stroke-width="2" stroke="#fff" stroke-linecap="round"></line><line x1="193.172352397799" x2="177.8973631469393" y1="9.739955650360574" y2="25.014944901220243" stroke-width="2" stroke="#fff" stroke-linecap="round"></line><line x1="193.172352397799" x2="177.8973631469393" y1="-502.26004434963943" y2="-486.98505509877975" stroke-width="2" stroke="#fff" stroke-linecap="round"></line><line x1="449.172352397799" x2="433.8973631469393" y1="-502.26004434963943" y2="-486.98505509877975" stroke-width="2" stroke="#fff" stroke-linecap="round"></line><line x1="705.1723523977989" x2="689.8973631469394" y1="-502.26004434963943" y2="-486.98505509877975" stroke-width="2" stroke="#fff" stroke-linecap="round"></line><line x1="193.172352397799" x2="177.8973631469393" y1="-246.26004434963943" y2="-230.98505509877975" stroke-width="2" stroke="#fff" stroke-linecap="round"></line><line x1="449.172352397799" x2="433.8973631469393" y1="-246.26004434963943" y2="-230.98505509877975" stroke-width="2" stroke="#fff" stroke-linecap="round"></line><line x1="705.1723523977989" x2="689.8973631469394" y1="-246.26004434963943" y2="-230.98505509877975" stroke-width="2" stroke="#fff" stroke-linecap="round"></line><line x1="193.172352397799" x2="177.8973631469393" y1="9.739955650360574" y2="25.014944901220243" stroke-width="2" stroke="#fff" stroke-linecap="round"></line><line x1="449.172352397799" x2="433.8973631469393" y1="9.739955650360574" y2="25.014944901220243" stroke-width="2" stroke="#fff" stroke-linecap="round"></line><line x1="705.1723523977989" x2="689.8973631469394" y1="9.739955650360574" y2="25.014944901220243" stroke-width="2" stroke="#fff" stroke-linecap="round"></line><line x1="134.78541476560747" x2="123.09657144556162" y1="109.94150782751406" y2="121.63035114755989" stroke-width="2" stroke="#fff" stroke-linecap="round"></line><line x1="134.78541476560747" x2="123.09657144556162" y1="-402.05849217248596" y2="-390.3696488524401" stroke-width="2" stroke="#fff" stroke-linecap="round"></line><line x1="390.78541476560747" x2="379.0965714455616" y1="-402.05849217248596" y2="-390.3696488524401" stroke-width="2" stroke="#fff" stroke-linecap="round"></line><line x1="646.7854147656075" x2="635.0965714455616" y1="-402.05849217248596" y2="-390.3696488524401" stroke-width="2" stroke="#fff" stroke-linecap="round"></line><line x1="134.78541476560747" x2="123.09657144556162" y1="-146.05849217248596" y2="-134.3696488524401" stroke-width="2" stroke="#fff" stroke-linecap="round"></line><line x1="390.78541476560747" x2="379.0965714455616" y1="-146.05849217248596" y2="-134.3696488524401" stroke-width="2" stroke="#fff" stroke-linecap="round"></line><line x1="646.7854147656075" x2="635.0965714455616" y1="-146.05849217248596" y2="-134.3696488524401" stroke-width="2" stroke="#fff" stroke-linecap="round"></line><line x1="134.78541476560747" x2="123.09657144556162" y1="109.94150782751406" y2="121.63035114755989" stroke-width="2" stroke="#fff" stroke-linecap="round"></line><line x1="390.78541476560747" x2="379.0965714455616" y1="109.94150782751406" y2="121.63035114755989" stroke-width="2" stroke="#fff" stroke-linecap="round"></line><line x1="646.7854147656075" x2="635.0965714455616" y1="109.94150782751406" y2="121.63035114755989" stroke-width="2" stroke="#fff" stroke-linecap="round"></line><line x1="97.46502698192887" x2="84.13517778533367" y1="209.31753690436346" y2="222.64738610095867" stroke-width="2" stroke="#fff" stroke-linecap="round"></line><line x1="97.46502698192887" x2="84.13517778533367" y1="-302.68246309563654" y2="-289.35261389904133" stroke-width="2" stroke="#fff" stroke-linecap="round"></line><line x1="353.4650269819289" x2="340.13517778533367" y1="-302.68246309563654" y2="-289.35261389904133" stroke-width="2" stroke="#fff" stroke-linecap="round"></line><line x1="609.4650269819289" x2="596.1351777853337" y1="-302.68246309563654" y2="-289.35261389904133" stroke-width="2" stroke="#fff" stroke-linecap="round"></line><line x1="97.46502698192887" x2="84.13517778533367" y1="-46.682463095636535" y2="-33.35261389904133" stroke-width="2" stroke="#fff" stroke-linecap="round"></line><line x1="353.4650269819289" x2="340.13517778533367" y1="-46.682463095636535" y2="-33.35261389904133" stroke-width="2" stroke="#fff" stroke-linecap="round"></line><line x1="609.4650269819289" x2="596.1351777853337" y1="-46.682463095636535" y2="-33.35261389904133" stroke-width="2" stroke="#fff" stroke-linecap="round"></line><line x1="97.46502698192887" x2="84.13517778533367" y1="209.31753690436346" y2="222.64738610095867" stroke-width="2" stroke="#fff" stroke-linecap="round"></line><line x1="353.4650269819289" x2="340.13517778533367" y1="209.31753690436346" y2="222.64738610095867" stroke-width="2" stroke="#fff" stroke-linecap="round"></line><line x1="609.4650269819289" x2="596.1351777853337" y1="209.31753690436346" y2="222.64738610095867" stroke-width="2" stroke="#fff" stroke-linecap="round"></line><line x1="77.70681265590765" x2="66.39211719306893" y1="86.89750886430805" y2="98.21220432714678" stroke-width="2" stroke="#fff" stroke-linecap="round"></line><line x1="77.70681265590765" x2="66.39211719306893" y1="-425.10249113569193" y2="-413.78779567285324" stroke-width="2" stroke="#fff" stroke-linecap="round"></line><line x1="333.70681265590764" x2="322.39211719306894" y1="-425.10249113569193" y2="-413.78779567285324" stroke-width="2" stroke="#fff" stroke-linecap="round"></line><line x1="589.7068126559077" x2="578.3921171930689" y1="-425.10249113569193" y2="-413.78779567285324" stroke-width="2" stroke="#fff" stroke-linecap="round"></line><line x1="77.70681265590765" x2="66.39211719306893" y1="-169.10249113569193" y2="-157.78779567285324" stroke-width="2" stroke="#fff" stroke-linecap="round"></line><line x1="333.70681265590764" x2="322.39211719306894" y1="-169.10249113569193" y2="-157.78779567285324" stroke-width="2" stroke="#fff" stroke-linecap="round"></line><line x1="589.7068126559077" x2="578.3921171930689" y1="-169.10249113569193" y2="-157.78779567285324" stroke-width="2" stroke="#fff" stroke-linecap="round"></line><line x1="77.70681265590765" x2="66.39211719306893" y1="86.89750886430805" y2="98.21220432714678" stroke-width="2" stroke="#fff" stroke-linecap="round"></line><line x1="333.70681265590764" x2="322.39211719306894" y1="86.89750886430805" y2="98.21220432714678" stroke-width="2" stroke="#fff" stroke-linecap="round"></line><line x1="589.7068126559077" x2="578.3921171930689" y1="86.89750886430805" y2="98.21220432714678" stroke-width="2" stroke="#fff" stroke-linecap="round"></line><line x1="237.61593775518833" x2="223.3350563364848" y1="96.05466780850367" y2="110.3355492272072" stroke-width="2" stroke="#fff" stroke-linecap="round"></line><line x1="237.61593775518833" x2="223.3350563364848" y1="-415.94533219149633" y2="-401.6644507727928" stroke-width="2" stroke="#fff" stroke-linecap="round"></line><line x1="493.6159377551883" x2="479.3350563364848" y1="-415.94533219149633" y2="-401.6644507727928" stroke-width="2" stroke="#fff" stroke-linecap="round"></line><line x1="749.6159377551883" x2="735.3350563364847" y1="-415.94533219149633" y2="-401.6644507727928" stroke-width="2" stroke="#fff" stroke-linecap="round"></line><line x1="237.61593775518833" x2="223.3350563364848" y1="-159.94533219149633" y2="-145.6644507727928" stroke-width="2" stroke="#fff" stroke-linecap="round"></line><line x1="493.6159377551883" x2="479.3350563364848" y1="-159.94533219149633" y2="-145.6644507727928" stroke-width="2" stroke="#fff" stroke-linecap="round"></line><line x1="749.6159377551883" x2="735.3350563364847" y1="-159.94533219149633" y2="-145.6644507727928" stroke-width="2" stroke="#fff" stroke-linecap="round"></line><line x1="237.61593775518833" x2="223.3350563364848" y1="96.05466780850367" y2="110.3355492272072" stroke-width="2" stroke="#fff" stroke-linecap="round"></line><line x1="493.6159377551883" x2="479.3350563364848" y1="96.05466780850367" y2="110.3355492272072" stroke-width="2" stroke="#fff" stroke-linecap="round"></line><line x1="749.6159377551883" x2="735.3350563364847" y1="96.05466780850367" y2="110.3355492272072" stroke-width="2" stroke="#fff" stroke-linecap="round"></line><line x1="167.5763103239582" x2="165.31148269242587" y1="245.69520241720588" y2="247.96003004873822" stroke-width="2" stroke="#fff" stroke-linecap="round"></line><line x1="167.5763103239582" x2="165.31148269242587" y1="-266.3047975827941" y2="-264.0399699512618" stroke-width="2" stroke="#fff" stroke-linecap="round"></line><line x1="423.5763103239582" x2="421.3114826924259" y1="-266.3047975827941" y2="-264.0399699512618" stroke-width="2" stroke="#fff" stroke-linecap="round"></line><line x1="679.5763103239582" x2="677.3114826924259" y1="-266.3047975827941" y2="-264.0399699512618" stroke-width="2" stroke="#fff" stroke-linecap="round"></line><line x1="167.5763103239582" x2="165.31148269242587" y1="-10.304797582794123" y2="-8.039969951261781" stroke-width="2" stroke="#fff" stroke-linecap="round"></line><line x1="423.5763103239582" x2="421.3114826924259" y1="-10.304797582794123" y2="-8.039969951261781" stroke-width="2" stroke="#fff" stroke-linecap="round"></line><line x1="679.5763103239582" x2="677.3114826924259" y1="-10.304797582794123" y2="-8.039969951261781" stroke-width="2" stroke="#fff" stroke-linecap="round"></line><line x1="167.5763103239582" x2="165.31148269242587" y1="245.69520241720588" y2="247.96003004873822" stroke-width="2" stroke="#fff" stroke-linecap="round"></line><line x1="423.5763103239582" x2="421.3114826924259" y1="245.69520241720588" y2="247.96003004873822" stroke-width="2" stroke="#fff" stroke-linecap="round"></line><line x1="679.5763103239582" x2="677.3114826924259" y1="245.69520241720588" y2="247.96003004873822" stroke-width="2" stroke="#fff" stroke-linecap="round"></line><line x1="109.70427970928591" x2="102.86818239227063" y1="248.77560885238222" y2="255.6117061693975" stroke-width="2" stroke="#fff" stroke-linecap="round"></line><line x1="109.70427970928591" x2="102.86818239227063" y1="-263.2243911476178" y2="-256.3882938306025" stroke-width="2" stroke="#fff" stroke-linecap="round"></line><line x1="365.7042797092859" x2="358.8681823922706" y1="-263.2243911476178" y2="-256.3882938306025" stroke-width="2" stroke="#fff" stroke-linecap="round"></line><line x1="621.7042797092859" x2="614.8681823922707" y1="-263.2243911476178" y2="-256.3882938306025" stroke-width="2" stroke="#fff" stroke-linecap="round"></line><line x1="109.70427970928591" x2="102.86818239227063" y1="-7.22439114761778" y2="-0.38829383060249256" stroke-width="2" stroke="#fff" stroke-linecap="round"></line><line x1="365.7042797092859" x2="358.8681823922706" y1="-7.22439114761778" y2="-0.38829383060249256" stroke-width="2" stroke="#fff" stroke-linecap="round"></line><line x1="621.7042797092859" x2="614.8681823922707" y1="-7.22439114761778" y2="-0.38829383060249256" stroke-width="2" stroke="#fff" stroke-linecap="round"></line><line x1="109.70427970928591" x2="102.86818239227063" y1="248.77560885238222" y2="255.6117061693975" stroke-width="2" stroke="#fff" stroke-linecap="round"></line><line x1="365.7042797092859" x2="358.8681823922706" y1="248.77560885238222" y2="255.6117061693975" stroke-width="2" stroke="#fff" stroke-linecap="round"></line><line x1="621.7042797092859" x2="614.8681823922707" y1="248.77560885238222" y2="255.6117061693975" stroke-width="2" stroke="#fff" stroke-linecap="round"></line><line x1="211.10004391721705" x2="198.4591485522936" y1="204.49500245579364" y2="217.13589782071708" stroke-width="2" stroke="#fff" stroke-linecap="round"></line><line x1="211.10004391721705" x2="198.4591485522936" y1="-307.5049975442064" y2="-294.8641021792829" stroke-width="2" stroke="#fff" stroke-linecap="round"></line><line x1="467.100043917217" x2="454.45914855229364" y1="-307.5049975442064" y2="-294.8641021792829" stroke-width="2" stroke="#fff" stroke-linecap="round"></line><line x1="723.100043917217" x2="710.4591485522936" y1="-307.5049975442064" y2="-294.8641021792829" stroke-width="2" stroke="#fff" stroke-linecap="round"></line><line x1="211.10004391721705" x2="198.4591485522936" y1="-51.50499754420636" y2="-38.86410217928292" stroke-width="2" stroke="#fff" stroke-linecap="round"></line><line x1="467.100043917217" x2="454.45914855229364" y1="-51.50499754420636" y2="-38.86410217928292" stroke-width="2" stroke="#fff" stroke-linecap="round"></line><line x1="723.100043917217" x2="710.4591485522936" y1="-51.50499754420636" y2="-38.86410217928292" stroke-width="2" stroke="#fff" stroke-linecap="round"></line><line x1="211.10004391721705" x2="198.4591485522936" y1="204.49500245579364" y2="217.13589782071708" stroke-width="2" stroke="#fff" stroke-linecap="round"></line><line x1="467.100043917217" x2="454.45914855229364" y1="204.49500245579364" y2="217.13589782071708" stroke-width="2" stroke="#fff" stroke-linecap="round"></line><line x1="723.100043917217" x2="710.4591485522936" y1="204.49500245579364" y2="217.13589782071708" stroke-width="2" stroke="#fff" stroke-linecap="round"></line><line x1="216.21400447859892" x2="209.61494664142126" y1="193.24653332553495" y2="199.84559116271262" stroke-width="2" stroke="#fff" stroke-linecap="round"></line><line x1="216.21400447859892" x2="209.61494664142126" y1="-318.753466674465" y2="-312.1544088372874" stroke-width="2" stroke="#fff" stroke-linecap="round"></line><line x1="472.2140044785989" x2="465.6149466414213" y1="-318.753466674465" y2="-312.1544088372874" stroke-width="2" stroke="#fff" stroke-linecap="round"></line><line x1="728.2140044785989" x2="721.6149466414213" y1="-318.753466674465" y2="-312.1544088372874" stroke-width="2" stroke="#fff" stroke-linecap="round"></line><line x1="216.21400447859892" x2="209.61494664142126" y1="-62.753466674465045" y2="-56.15440883728738" stroke-width="2" stroke="#fff" stroke-linecap="round"></line><line x1="472.2140044785989" x2="465.6149466414213" y1="-62.753466674465045" y2="-56.15440883728738" stroke-width="2" stroke="#fff" stroke-linecap="round"></line><line x1="728.2140044785989" x2="721.6149466414213" y1="-62.753466674465045" y2="-56.15440883728738" stroke-width="2" stroke="#fff" stroke-linecap="round"></line><line x1="216.21400447859892" x2="209.61494664142126" y1="193.24653332553495" y2="199.84559116271262" stroke-width="2" stroke="#fff" stroke-linecap="round"></line><line x1="472.2140044785989" x2="465.6149466414213" y1="193.24653332553495" y2="199.84559116271262" stroke-width="2" stroke="#fff" stroke-linecap="round"></line><line x1="728.2140044785989" x2="721.6149466414213" y1="193.24653332553495" y2="199.84559116271262" stroke-width="2" stroke="#fff" stroke-linecap="round"></line><line x1="219.24110410045537" x2="212.3581719047157" y1="41.355795179905975" y2="48.23872737564566" stroke-width="2" stroke="#fff" stroke-linecap="round"></line><line x1="219.24110410045537" x2="212.3581719047157" y1="-470.64420482009405" y2="-463.7612726243543" stroke-width="2" stroke="#fff" stroke-linecap="round"></line><line x1="475.24110410045535" x2="468.35817190471573" y1="-470.64420482009405" y2="-463.7612726243543" stroke-width="2" stroke="#fff" stroke-linecap="round"></line><line x1="731.2411041004553" x2="724.3581719047157" y1="-470.64420482009405" y2="-463.7612726243543" stroke-width="2" stroke="#fff" stroke-linecap="round"></line><line x1="219.24110410045537" x2="212.3581719047157" y1="-214.64420482009402" y2="-207.76127262435435" stroke-width="2" stroke="#fff" stroke-linecap="round"></line><line x1="475.24110410045535" x2="468.35817190471573" y1="-214.64420482009402" y2="-207.76127262435435" stroke-width="2" stroke="#fff" stroke-linecap="round"></line><line x1="731.2411041004553" x2="724.3581719047157" y1="-214.64420482009402" y2="-207.76127262435435" stroke-width="2" stroke="#fff" stroke-linecap="round"></line><line x1="219.24110410045537" x2="212.3581719047157" y1="41.355795179905975" y2="48.23872737564566" stroke-width="2" stroke="#fff" stroke-linecap="round"></line><line x1="475.24110410045535" x2="468.35817190471573" y1="41.355795179905975" y2="48.23872737564566" stroke-width="2" stroke="#fff" stroke-linecap="round"></line><line x1="731.2411041004553" x2="724.3581719047157" y1="41.355795179905975" y2="48.23872737564566" stroke-width="2" stroke="#fff" stroke-linecap="round"></line><line x1="184.2111593471694" x2="175.7477852560809" y1="139.43278197216736" y2="147.89615606325586" stroke-width="2" stroke="#fff" stroke-linecap="round"></line><line x1="184.2111593471694" x2="175.7477852560809" y1="-372.5672180278326" y2="-364.10384393674417" stroke-width="2" stroke="#fff" stroke-linecap="round"></line><line x1="440.2111593471694" x2="431.7477852560809" y1="-372.5672180278326" y2="-364.10384393674417" stroke-width="2" stroke="#fff" stroke-linecap="round"></line><line x1="696.2111593471694" x2="687.7477852560809" y1="-372.5672180278326" y2="-364.10384393674417" stroke-width="2" stroke="#fff" stroke-linecap="round"></line><line x1="184.2111593471694" x2="175.7477852560809" y1="-116.56721802783264" y2="-108.10384393674414" stroke-width="2" stroke="#fff" stroke-linecap="round"></line><line x1="440.2111593471694" x2="431.7477852560809" y1="-116.56721802783264" y2="-108.10384393674414" stroke-width="2" stroke="#fff" stroke-linecap="round"></line><line x1="696.2111593471694" x2="687.7477852560809" y1="-116.56721802783264" y2="-108.10384393674414" stroke-width="2" stroke="#fff" stroke-linecap="round"></line><line x1="184.2111593471694" x2="175.7477852560809" y1="139.43278197216736" y2="147.89615606325586" stroke-width="2" stroke="#fff" stroke-linecap="round"></line><line x1="440.2111593471694" x2="431.7477852560809" y1="139.43278197216736" y2="147.89615606325586" stroke-width="2" stroke="#fff" stroke-linecap="round"></line><line x1="696.2111593471694" x2="687.7477852560809" y1="139.43278197216736" y2="147.89615606325586" stroke-width="2" stroke="#fff" stroke-linecap="round"></line><line x1="52.09440193633925" x2="42.84105927120588" y1="84.83985252833291" y2="94.09319519346629" stroke-width="2" stroke="#fff" stroke-linecap="round"></line><line x1="52.09440193633925" x2="42.84105927120588" y1="-427.1601474716671" y2="-417.9068048065337" stroke-width="2" stroke="#fff" stroke-linecap="round"></line><line x1="308.09440193633924" x2="298.8410592712059" y1="-427.1601474716671" y2="-417.9068048065337" stroke-width="2" stroke="#fff" stroke-linecap="round"></line><line x1="564.0944019363393" x2="554.8410592712058" y1="-427.1601474716671" y2="-417.9068048065337" stroke-width="2" stroke="#fff" stroke-linecap="round"></line><line x1="52.09440193633925" x2="42.84105927120588" y1="-171.16014747166707" y2="-161.90680480653373" stroke-width="2" stroke="#fff" stroke-linecap="round"></line><line x1="308.09440193633924" x2="298.8410592712059" y1="-171.16014747166707" y2="-161.90680480653373" stroke-width="2" stroke="#fff" stroke-linecap="round"></line><line x1="564.0944019363393" x2="554.8410592712058" y1="-171.16014747166707" y2="-161.90680480653373" stroke-width="2" stroke="#fff" stroke-linecap="round"></line><line x1="52.09440193633925" x2="42.84105927120588" y1="84.83985252833291" y2="94.09319519346629" stroke-width="2" stroke="#fff" stroke-linecap="round"></line><line x1="308.09440193633924" x2="298.8410592712059" y1="84.83985252833291" y2="94.09319519346629" stroke-width="2" stroke="#fff" stroke-linecap="round"></line><line x1="564.0944019363393" x2="554.8410592712058" y1="84.83985252833291" y2="94.09319519346629" stroke-width="2" stroke="#fff" stroke-linecap="round"></line>
  <animateTransform attributeName="transform" type="translate" values="0 0;-256 256" keyTimes="0;1" repeatCount="indefinite" dur="3.846153846153846s"></animateTransform>
</g><g>
  <line x1="4.166194861171801" x2="-1.9482085229718802" y1="56.288211096702284" y2="62.40261448084597" stroke-width="2" stroke="#a9f0f9" stroke-linecap="round"></line><line x1="4.166194861171801" x2="-1.9482085229718802" y1="-455.7117889032977" y2="-449.59738551915405" stroke-width="2" stroke="#a9f0f9" stroke-linecap="round"></line><line x1="260.1661948611718" x2="254.05179147702813" y1="-455.7117889032977" y2="-449.59738551915405" stroke-width="2" stroke="#a9f0f9" stroke-linecap="round"></line><line x1="516.1661948611718" x2="510.05179147702813" y1="-455.7117889032977" y2="-449.59738551915405" stroke-width="2" stroke="#a9f0f9" stroke-linecap="round"></line><line x1="4.166194861171801" x2="-1.9482085229718802" y1="-199.7117889032977" y2="-193.59738551915405" stroke-width="2" stroke="#a9f0f9" stroke-linecap="round"></line><line x1="260.1661948611718" x2="254.05179147702813" y1="-199.7117889032977" y2="-193.59738551915405" stroke-width="2" stroke="#a9f0f9" stroke-linecap="round"></line><line x1="516.1661948611718" x2="510.05179147702813" y1="-199.7117889032977" y2="-193.59738551915405" stroke-width="2" stroke="#a9f0f9" stroke-linecap="round"></line><line x1="4.166194861171801" x2="-1.9482085229718802" y1="56.288211096702284" y2="62.40261448084597" stroke-width="2" stroke="#a9f0f9" stroke-linecap="round"></line><line x1="260.1661948611718" x2="254.05179147702813" y1="56.288211096702284" y2="62.40261448084597" stroke-width="2" stroke="#a9f0f9" stroke-linecap="round"></line><line x1="516.1661948611718" x2="510.05179147702813" y1="56.288211096702284" y2="62.40261448084597" stroke-width="2" stroke="#a9f0f9" stroke-linecap="round"></line><line x1="127.79693281107639" x2="111.76371719665433" y1="145.09560069356033" y2="161.12881630798242" stroke-width="2" stroke="#a9f0f9" stroke-linecap="round"></line><line x1="127.79693281107639" x2="111.76371719665433" y1="-366.9043993064397" y2="-350.87118369201755" stroke-width="2" stroke="#a9f0f9" stroke-linecap="round"></line><line x1="383.7969328110764" x2="367.76371719665434" y1="-366.9043993064397" y2="-350.87118369201755" stroke-width="2" stroke="#a9f0f9" stroke-linecap="round"></line><line x1="639.7969328110764" x2="623.7637171966543" y1="-366.9043993064397" y2="-350.87118369201755" stroke-width="2" stroke="#a9f0f9" stroke-linecap="round"></line><line x1="127.79693281107639" x2="111.76371719665433" y1="-110.90439930643967" y2="-94.87118369201758" stroke-width="2" stroke="#a9f0f9" stroke-linecap="round"></line><line x1="383.7969328110764" x2="367.76371719665434" y1="-110.90439930643967" y2="-94.87118369201758" stroke-width="2" stroke="#a9f0f9" stroke-linecap="round"></line><line x1="639.7969328110764" x2="623.7637171966543" y1="-110.90439930643967" y2="-94.87118369201758" stroke-width="2" stroke="#a9f0f9" stroke-linecap="round"></line><line x1="127.79693281107639" x2="111.76371719665433" y1="145.09560069356033" y2="161.12881630798242" stroke-width="2" stroke="#a9f0f9" stroke-linecap="round"></line><line x1="383.7969328110764" x2="367.76371719665434" y1="145.09560069356033" y2="161.12881630798242" stroke-width="2" stroke="#a9f0f9" stroke-linecap="round"></line><line x1="639.7969328110764" x2="623.7637171966543" y1="145.09560069356033" y2="161.12881630798242" stroke-width="2" stroke="#a9f0f9" stroke-linecap="round"></line><line x1="124.85578016699581" x2="115.83577650401845" y1="161.73708870613487" y2="170.7570923691122" stroke-width="2" stroke="#a9f0f9" stroke-linecap="round"></line><line x1="124.85578016699581" x2="115.83577650401845" y1="-350.26291129386516" y2="-341.24290763088777" stroke-width="2" stroke="#a9f0f9" stroke-linecap="round"></line><line x1="380.8557801669958" x2="371.83577650401844" y1="-350.26291129386516" y2="-341.24290763088777" stroke-width="2" stroke="#a9f0f9" stroke-linecap="round"></line><line x1="636.8557801669958" x2="627.8357765040184" y1="-350.26291129386516" y2="-341.24290763088777" stroke-width="2" stroke="#a9f0f9" stroke-linecap="round"></line><line x1="124.85578016699581" x2="115.83577650401845" y1="-94.26291129386513" y2="-85.2429076308878" stroke-width="2" stroke="#a9f0f9" stroke-linecap="round"></line><line x1="380.8557801669958" x2="371.83577650401844" y1="-94.26291129386513" y2="-85.2429076308878" stroke-width="2" stroke="#a9f0f9" stroke-linecap="round"></line><line x1="636.8557801669958" x2="627.8357765040184" y1="-94.26291129386513" y2="-85.2429076308878" stroke-width="2" stroke="#a9f0f9" stroke-linecap="round"></line><line x1="124.85578016699581" x2="115.83577650401845" y1="161.73708870613487" y2="170.7570923691122" stroke-width="2" stroke="#a9f0f9" stroke-linecap="round"></line><line x1="380.8557801669958" x2="371.83577650401844" y1="161.73708870613487" y2="170.7570923691122" stroke-width="2" stroke="#a9f0f9" stroke-linecap="round"></line><line x1="636.8557801669958" x2="627.8357765040184" y1="161.73708870613487" y2="170.7570923691122" stroke-width="2" stroke="#a9f0f9" stroke-linecap="round"></line><line x1="71.552654111409" x2="60.74078685215406" y1="170.74883297553757" y2="181.5607002347925" stroke-width="2" stroke="#a9f0f9" stroke-linecap="round"></line><line x1="71.552654111409" x2="60.74078685215406" y1="-341.25116702446246" y2="-330.43929976520747" stroke-width="2" stroke="#a9f0f9" stroke-linecap="round"></line><line x1="327.55265411140897" x2="316.7407868521541" y1="-341.25116702446246" y2="-330.43929976520747" stroke-width="2" stroke="#a9f0f9" stroke-linecap="round"></line><line x1="583.552654111409" x2="572.7407868521541" y1="-341.25116702446246" y2="-330.43929976520747" stroke-width="2" stroke="#a9f0f9" stroke-linecap="round"></line><line x1="71.552654111409" x2="60.74078685215406" y1="-85.25116702446243" y2="-74.4392997652075" stroke-width="2" stroke="#a9f0f9" stroke-linecap="round"></line><line x1="327.55265411140897" x2="316.7407868521541" y1="-85.25116702446243" y2="-74.4392997652075" stroke-width="2" stroke="#a9f0f9" stroke-linecap="round"></line><line x1="583.552654111409" x2="572.7407868521541" y1="-85.25116702446243" y2="-74.4392997652075" stroke-width="2" stroke="#a9f0f9" stroke-linecap="round"></line><line x1="71.552654111409" x2="60.74078685215406" y1="170.74883297553757" y2="181.5607002347925" stroke-width="2" stroke="#a9f0f9" stroke-linecap="round"></line><line x1="327.55265411140897" x2="316.7407868521541" y1="170.74883297553757" y2="181.5607002347925" stroke-width="2" stroke="#a9f0f9" stroke-linecap="round"></line><line x1="583.552654111409" x2="572.7407868521541" y1="170.74883297553757" y2="181.5607002347925" stroke-width="2" stroke="#a9f0f9" stroke-linecap="round"></line><line x1="240.81990692901664" x2="233.4322925663839" y1="63.574196948469904" y2="70.96181131110265" stroke-width="2" stroke="#a9f0f9" stroke-linecap="round"></line><line x1="240.81990692901664" x2="233.4322925663839" y1="-448.4258030515301" y2="-441.0381886888973" stroke-width="2" stroke="#a9f0f9" stroke-linecap="round"></line><line x1="496.8199069290166" x2="489.4322925663839" y1="-448.4258030515301" y2="-441.0381886888973" stroke-width="2" stroke="#a9f0f9" stroke-linecap="round"></line><line x1="752.8199069290166" x2="745.4322925663839" y1="-448.4258030515301" y2="-441.0381886888973" stroke-width="2" stroke="#a9f0f9" stroke-linecap="round"></line><line x1="240.81990692901664" x2="233.4322925663839" y1="-192.4258030515301" y2="-185.03818868889735" stroke-width="2" stroke="#a9f0f9" stroke-linecap="round"></line><line x1="496.8199069290166" x2="489.4322925663839" y1="-192.4258030515301" y2="-185.03818868889735" stroke-width="2" stroke="#a9f0f9" stroke-linecap="round"></line><line x1="752.8199069290166" x2="745.4322925663839" y1="-192.4258030515301" y2="-185.03818868889735" stroke-width="2" stroke="#a9f0f9" stroke-linecap="round"></line><line x1="240.81990692901664" x2="233.4322925663839" y1="63.574196948469904" y2="70.96181131110265" stroke-width="2" stroke="#a9f0f9" stroke-linecap="round"></line><line x1="496.8199069290166" x2="489.4322925663839" y1="63.574196948469904" y2="70.96181131110265" stroke-width="2" stroke="#a9f0f9" stroke-linecap="round"></line><line x1="752.8199069290166" x2="745.4322925663839" y1="63.574196948469904" y2="70.96181131110265" stroke-width="2" stroke="#a9f0f9" stroke-linecap="round"></line><line x1="137.25459236185876" x2="124.04924954457076" y1="209.50230590142112" y2="222.70764871870912" stroke-width="2" stroke="#a9f0f9" stroke-linecap="round"></line><line x1="137.25459236185876" x2="124.04924954457076" y1="-302.4976940985789" y2="-289.29235128129085" stroke-width="2" stroke="#a9f0f9" stroke-linecap="round"></line><line x1="393.2545923618587" x2="380.0492495445708" y1="-302.4976940985789" y2="-289.29235128129085" stroke-width="2" stroke="#a9f0f9" stroke-linecap="round"></line><line x1="649.2545923618587" x2="636.0492495445708" y1="-302.4976940985789" y2="-289.29235128129085" stroke-width="2" stroke="#a9f0f9" stroke-linecap="round"></line><line x1="137.25459236185876" x2="124.04924954457076" y1="-46.497694098578876" y2="-33.29235128129088" stroke-width="2" stroke="#a9f0f9" stroke-linecap="round"></line><line x1="393.2545923618587" x2="380.0492495445708" y1="-46.497694098578876" y2="-33.29235128129088" stroke-width="2" stroke="#a9f0f9" stroke-linecap="round"></line><line x1="649.2545923618587" x2="636.0492495445708" y1="-46.497694098578876" y2="-33.29235128129088" stroke-width="2" stroke="#a9f0f9" stroke-linecap="round"></line><line x1="137.25459236185876" x2="124.04924954457076" y1="209.50230590142112" y2="222.70764871870912" stroke-width="2" stroke="#a9f0f9" stroke-linecap="round"></line><line x1="393.2545923618587" x2="380.0492495445708" y1="209.50230590142112" y2="222.70764871870912" stroke-width="2" stroke="#a9f0f9" stroke-linecap="round"></line><line x1="649.2545923618587" x2="636.0492495445708" y1="209.50230590142112" y2="222.70764871870912" stroke-width="2" stroke="#a9f0f9" stroke-linecap="round"></line><line x1="103.59890602718896" x2="101.46721323283826" y1="85.05571115520182" y2="87.18740394955252" stroke-width="2" stroke="#a9f0f9" stroke-linecap="round"></line><line x1="103.59890602718896" x2="101.46721323283826" y1="-426.94428884479817" y2="-424.8125960504475" stroke-width="2" stroke="#a9f0f9" stroke-linecap="round"></line><line x1="359.59890602718895" x2="357.4672132328383" y1="-426.94428884479817" y2="-424.8125960504475" stroke-width="2" stroke="#a9f0f9" stroke-linecap="round"></line><line x1="615.598906027189" x2="613.4672132328383" y1="-426.94428884479817" y2="-424.8125960504475" stroke-width="2" stroke="#a9f0f9" stroke-linecap="round"></line><line x1="103.59890602718896" x2="101.46721323283826" y1="-170.94428884479817" y2="-168.8125960504475" stroke-width="2" stroke="#a9f0f9" stroke-linecap="round"></line><line x1="359.59890602718895" x2="357.4672132328383" y1="-170.94428884479817" y2="-168.8125960504475" stroke-width="2" stroke="#a9f0f9" stroke-linecap="round"></line><line x1="615.598906027189" x2="613.4672132328383" y1="-170.94428884479817" y2="-168.8125960504475" stroke-width="2" stroke="#a9f0f9" stroke-linecap="round"></line><line x1="103.59890602718896" x2="101.46721323283826" y1="85.05571115520182" y2="87.18740394955252" stroke-width="2" stroke="#a9f0f9" stroke-linecap="round"></line><line x1="359.59890602718895" x2="357.4672132328383" y1="85.05571115520182" y2="87.18740394955252" stroke-width="2" stroke="#a9f0f9" stroke-linecap="round"></line><line x1="615.598906027189" x2="613.4672132328383" y1="85.05571115520182" y2="87.18740394955252" stroke-width="2" stroke="#a9f0f9" stroke-linecap="round"></line><line x1="84.88509797387101" x2="72.77785343874925" y1="102.47343325556167" y2="114.58067779068344" stroke-width="2" stroke="#a9f0f9" stroke-linecap="round"></line><line x1="84.88509797387101" x2="72.77785343874925" y1="-409.52656674443836" y2="-397.41932220931653" stroke-width="2" stroke="#a9f0f9" stroke-linecap="round"></line><line x1="340.885097973871" x2="328.7778534387493" y1="-409.52656674443836" y2="-397.41932220931653" stroke-width="2" stroke="#a9f0f9" stroke-linecap="round"></line><line x1="596.885097973871" x2="584.7778534387493" y1="-409.52656674443836" y2="-397.41932220931653" stroke-width="2" stroke="#a9f0f9" stroke-linecap="round"></line><line x1="84.88509797387101" x2="72.77785343874925" y1="-153.52656674443833" y2="-141.41932220931656" stroke-width="2" stroke="#a9f0f9" stroke-linecap="round"></line><line x1="340.885097973871" x2="328.7778534387493" y1="-153.52656674443833" y2="-141.41932220931656" stroke-width="2" stroke="#a9f0f9" stroke-linecap="round"></line><line x1="596.885097973871" x2="584.7778534387493" y1="-153.52656674443833" y2="-141.41932220931656" stroke-width="2" stroke="#a9f0f9" stroke-linecap="round"></line><line x1="84.88509797387101" x2="72.77785343874925" y1="102.47343325556167" y2="114.58067779068344" stroke-width="2" stroke="#a9f0f9" stroke-linecap="round"></line><line x1="340.885097973871" x2="328.7778534387493" y1="102.47343325556167" y2="114.58067779068344" stroke-width="2" stroke="#a9f0f9" stroke-linecap="round"></line><line x1="596.885097973871" x2="584.7778534387493" y1="102.47343325556167" y2="114.58067779068344" stroke-width="2" stroke="#a9f0f9" stroke-linecap="round"></line><line x1="16.806258735038515" x2="7.409989783779619" y1="8.896943005977331" y2="18.293211957236228" stroke-width="2" stroke="#a9f0f9" stroke-linecap="round"></line><line x1="16.806258735038515" x2="7.409989783779619" y1="-503.10305699402267" y2="-493.7067880427638" stroke-width="2" stroke="#a9f0f9" stroke-linecap="round"></line><line x1="272.8062587350385" x2="263.4099897837796" y1="-503.10305699402267" y2="-493.7067880427638" stroke-width="2" stroke="#a9f0f9" stroke-linecap="round"></line><line x1="528.8062587350386" x2="519.4099897837796" y1="-503.10305699402267" y2="-493.7067880427638" stroke-width="2" stroke="#a9f0f9" stroke-linecap="round"></line><line x1="16.806258735038515" x2="7.409989783779619" y1="-247.10305699402267" y2="-237.70678804276378" stroke-width="2" stroke="#a9f0f9" stroke-linecap="round"></line><line x1="272.8062587350385" x2="263.4099897837796" y1="-247.10305699402267" y2="-237.70678804276378" stroke-width="2" stroke="#a9f0f9" stroke-linecap="round"></line><line x1="528.8062587350386" x2="519.4099897837796" y1="-247.10305699402267" y2="-237.70678804276378" stroke-width="2" stroke="#a9f0f9" stroke-linecap="round"></line><line x1="16.806258735038515" x2="7.409989783779619" y1="8.896943005977331" y2="18.293211957236228" stroke-width="2" stroke="#a9f0f9" stroke-linecap="round"></line><line x1="272.8062587350385" x2="263.4099897837796" y1="8.896943005977331" y2="18.293211957236228" stroke-width="2" stroke="#a9f0f9" stroke-linecap="round"></line><line x1="528.8062587350386" x2="519.4099897837796" y1="8.896943005977331" y2="18.293211957236228" stroke-width="2" stroke="#a9f0f9" stroke-linecap="round"></line><line x1="213.60931404091275" x2="208.77688634906485" y1="216.41792999549017" y2="221.25035768733807" stroke-width="2" stroke="#a9f0f9" stroke-linecap="round"></line><line x1="213.60931404091275" x2="208.77688634906485" y1="-295.58207000450983" y2="-290.74964231266193" stroke-width="2" stroke="#a9f0f9" stroke-linecap="round"></line><line x1="469.60931404091275" x2="464.77688634906485" y1="-295.58207000450983" y2="-290.74964231266193" stroke-width="2" stroke="#a9f0f9" stroke-linecap="round"></line><line x1="725.6093140409127" x2="720.7768863490649" y1="-295.58207000450983" y2="-290.74964231266193" stroke-width="2" stroke="#a9f0f9" stroke-linecap="round"></line><line x1="213.60931404091275" x2="208.77688634906485" y1="-39.58207000450983" y2="-34.74964231266193" stroke-width="2" stroke="#a9f0f9" stroke-linecap="round"></line><line x1="469.60931404091275" x2="464.77688634906485" y1="-39.58207000450983" y2="-34.74964231266193" stroke-width="2" stroke="#a9f0f9" stroke-linecap="round"></line><line x1="725.6093140409127" x2="720.7768863490649" y1="-39.58207000450983" y2="-34.74964231266193" stroke-width="2" stroke="#a9f0f9" stroke-linecap="round"></line><line x1="213.60931404091275" x2="208.77688634906485" y1="216.41792999549017" y2="221.25035768733807" stroke-width="2" stroke="#a9f0f9" stroke-linecap="round"></line><line x1="469.60931404091275" x2="464.77688634906485" y1="216.41792999549017" y2="221.25035768733807" stroke-width="2" stroke="#a9f0f9" stroke-linecap="round"></line><line x1="725.6093140409127" x2="720.7768863490649" y1="216.41792999549017" y2="221.25035768733807" stroke-width="2" stroke="#a9f0f9" stroke-linecap="round"></line><line x1="249.20333671392882" x2="232.21779746222546" y1="110.34815673936055" y2="127.3336959910639" stroke-width="2" stroke="#a9f0f9" stroke-linecap="round"></line><line x1="249.20333671392882" x2="232.21779746222546" y1="-401.65184326063945" y2="-384.6663040089361" stroke-width="2" stroke="#a9f0f9" stroke-linecap="round"></line><line x1="505.2033367139288" x2="488.21779746222546" y1="-401.65184326063945" y2="-384.6663040089361" stroke-width="2" stroke="#a9f0f9" stroke-linecap="round"></line><line x1="761.2033367139288" x2="744.2177974622255" y1="-401.65184326063945" y2="-384.6663040089361" stroke-width="2" stroke="#a9f0f9" stroke-linecap="round"></line><line x1="249.20333671392882" x2="232.21779746222546" y1="-145.65184326063945" y2="-128.6663040089361" stroke-width="2" stroke="#a9f0f9" stroke-linecap="round"></line><line x1="505.2033367139288" x2="488.21779746222546" y1="-145.65184326063945" y2="-128.6663040089361" stroke-width="2" stroke="#a9f0f9" stroke-linecap="round"></line><line x1="761.2033367139288" x2="744.2177974622255" y1="-145.65184326063945" y2="-128.6663040089361" stroke-width="2" stroke="#a9f0f9" stroke-linecap="round"></line><line x1="249.20333671392882" x2="232.21779746222546" y1="110.34815673936055" y2="127.3336959910639" stroke-width="2" stroke="#a9f0f9" stroke-linecap="round"></line><line x1="505.2033367139288" x2="488.21779746222546" y1="110.34815673936055" y2="127.3336959910639" stroke-width="2" stroke="#a9f0f9" stroke-linecap="round"></line><line x1="761.2033367139288" x2="744.2177974622255" y1="110.34815673936055" y2="127.3336959910639" stroke-width="2" stroke="#a9f0f9" stroke-linecap="round"></line><line x1="14.84024992185891" x2="2.574964612460807" y1="47.937259954003366" y2="60.202545263401475" stroke-width="2" stroke="#a9f0f9" stroke-linecap="round"></line><line x1="14.84024992185891" x2="2.574964612460807" y1="-464.06274004599663" y2="-451.7974547365985" stroke-width="2" stroke="#a9f0f9" stroke-linecap="round"></line><line x1="270.8402499218589" x2="258.5749646124608" y1="-464.06274004599663" y2="-451.7974547365985" stroke-width="2" stroke="#a9f0f9" stroke-linecap="round"></line><line x1="526.8402499218589" x2="514.5749646124608" y1="-464.06274004599663" y2="-451.7974547365985" stroke-width="2" stroke="#a9f0f9" stroke-linecap="round"></line><line x1="14.84024992185891" x2="2.574964612460807" y1="-208.06274004599663" y2="-195.79745473659852" stroke-width="2" stroke="#a9f0f9" stroke-linecap="round"></line><line x1="270.8402499218589" x2="258.5749646124608" y1="-208.06274004599663" y2="-195.79745473659852" stroke-width="2" stroke="#a9f0f9" stroke-linecap="round"></line><line x1="526.8402499218589" x2="514.5749646124608" y1="-208.06274004599663" y2="-195.79745473659852" stroke-width="2" stroke="#a9f0f9" stroke-linecap="round"></line><line x1="14.84024992185891" x2="2.574964612460807" y1="47.937259954003366" y2="60.202545263401475" stroke-width="2" stroke="#a9f0f9" stroke-linecap="round"></line><line x1="270.8402499218589" x2="258.5749646124608" y1="47.937259954003366" y2="60.202545263401475" stroke-width="2" stroke="#a9f0f9" stroke-linecap="round"></line><line x1="526.8402499218589" x2="514.5749646124608" y1="47.937259954003366" y2="60.202545263401475" stroke-width="2" stroke="#a9f0f9" stroke-linecap="round"></line><line x1="235.2889292318652" x2="228.66468670912883" y1="188.9235480151047" y2="195.54779053784108" stroke-width="2" stroke="#a9f0f9" stroke-linecap="round"></line><line x1="235.2889292318652" x2="228.66468670912883" y1="-323.0764519848953" y2="-316.4522094621589" stroke-width="2" stroke="#a9f0f9" stroke-linecap="round"></line><line x1="491.2889292318652" x2="484.66468670912883" y1="-323.0764519848953" y2="-316.4522094621589" stroke-width="2" stroke="#a9f0f9" stroke-linecap="round"></line><line x1="747.2889292318653" x2="740.6646867091288" y1="-323.0764519848953" y2="-316.4522094621589" stroke-width="2" stroke="#a9f0f9" stroke-linecap="round"></line><line x1="235.2889292318652" x2="228.66468670912883" y1="-67.0764519848953" y2="-60.45220946215892" stroke-width="2" stroke="#a9f0f9" stroke-linecap="round"></line><line x1="491.2889292318652" x2="484.66468670912883" y1="-67.0764519848953" y2="-60.45220946215892" stroke-width="2" stroke="#a9f0f9" stroke-linecap="round"></line><line x1="747.2889292318653" x2="740.6646867091288" y1="-67.0764519848953" y2="-60.45220946215892" stroke-width="2" stroke="#a9f0f9" stroke-linecap="round"></line><line x1="235.2889292318652" x2="228.66468670912883" y1="188.9235480151047" y2="195.54779053784108" stroke-width="2" stroke="#a9f0f9" stroke-linecap="round"></line><line x1="491.2889292318652" x2="484.66468670912883" y1="188.9235480151047" y2="195.54779053784108" stroke-width="2" stroke="#a9f0f9" stroke-linecap="round"></line><line x1="747.2889292318653" x2="740.6646867091288" y1="188.9235480151047" y2="195.54779053784108" stroke-width="2" stroke="#a9f0f9" stroke-linecap="round"></line><line x1="97.43746870453386" x2="86.02966000529891" y1="79.81406081091448" y2="91.22186951014943" stroke-width="2" stroke="#a9f0f9" stroke-linecap="round"></line><line x1="97.43746870453386" x2="86.02966000529891" y1="-432.1859391890855" y2="-420.7781304898506" stroke-width="2" stroke="#a9f0f9" stroke-linecap="round"></line><line x1="353.43746870453384" x2="342.0296600052989" y1="-432.1859391890855" y2="-420.7781304898506" stroke-width="2" stroke="#a9f0f9" stroke-linecap="round"></line><line x1="609.4374687045339" x2="598.0296600052989" y1="-432.1859391890855" y2="-420.7781304898506" stroke-width="2" stroke="#a9f0f9" stroke-linecap="round"></line><line x1="97.43746870453386" x2="86.02966000529891" y1="-176.1859391890855" y2="-164.77813048985058" stroke-width="2" stroke="#a9f0f9" stroke-linecap="round"></line><line x1="353.43746870453384" x2="342.0296600052989" y1="-176.1859391890855" y2="-164.77813048985058" stroke-width="2" stroke="#a9f0f9" stroke-linecap="round"></line><line x1="609.4374687045339" x2="598.0296600052989" y1="-176.1859391890855" y2="-164.77813048985058" stroke-width="2" stroke="#a9f0f9" stroke-linecap="round"></line><line x1="97.43746870453386" x2="86.02966000529891" y1="79.81406081091448" y2="91.22186951014943" stroke-width="2" stroke="#a9f0f9" stroke-linecap="round"></line><line x1="353.43746870453384" x2="342.0296600052989" y1="79.81406081091448" y2="91.22186951014943" stroke-width="2" stroke="#a9f0f9" stroke-linecap="round"></line><line x1="609.4374687045339" x2="598.0296600052989" y1="79.81406081091448" y2="91.22186951014943" stroke-width="2" stroke="#a9f0f9" stroke-linecap="round"></line><line x1="9.2311938396291" x2="-4.9813250117955485" y1="104.61113990578662" y2="118.82365875721126" stroke-width="2" stroke="#a9f0f9" stroke-linecap="round"></line><line x1="9.2311938396291" x2="-4.9813250117955485" y1="-407.3888600942134" y2="-393.17634124278874" stroke-width="2" stroke="#a9f0f9" stroke-linecap="round"></line><line x1="265.2311938396291" x2="251.01867498820445" y1="-407.3888600942134" y2="-393.17634124278874" stroke-width="2" stroke="#a9f0f9" stroke-linecap="round"></line><line x1="521.2311938396291" x2="507.01867498820445" y1="-407.3888600942134" y2="-393.17634124278874" stroke-width="2" stroke="#a9f0f9" stroke-linecap="round"></line><line x1="9.2311938396291" x2="-4.9813250117955485" y1="-151.38886009421338" y2="-137.17634124278874" stroke-width="2" stroke="#a9f0f9" stroke-linecap="round"></line><line x1="265.2311938396291" x2="251.01867498820445" y1="-151.38886009421338" y2="-137.17634124278874" stroke-width="2" stroke="#a9f0f9" stroke-linecap="round"></line><line x1="521.2311938396291" x2="507.01867498820445" y1="-151.38886009421338" y2="-137.17634124278874" stroke-width="2" stroke="#a9f0f9" stroke-linecap="round"></line><line x1="9.2311938396291" x2="-4.9813250117955485" y1="104.61113990578662" y2="118.82365875721126" stroke-width="2" stroke="#a9f0f9" stroke-linecap="round"></line><line x1="265.2311938396291" x2="251.01867498820445" y1="104.61113990578662" y2="118.82365875721126" stroke-width="2" stroke="#a9f0f9" stroke-linecap="round"></line><line x1="521.2311938396291" x2="507.01867498820445" y1="104.61113990578662" y2="118.82365875721126" stroke-width="2" stroke="#a9f0f9" stroke-linecap="round"></line><line x1="20.792228166476" x2="18.309773325396442" y1="248.08521564323004" y2="250.56767048430962" stroke-width="2" stroke="#a9f0f9" stroke-linecap="round"></line><line x1="20.792228166476" x2="18.309773325396442" y1="-263.9147843567699" y2="-261.4323295156904" stroke-width="2" stroke="#a9f0f9" stroke-linecap="round"></line><line x1="276.792228166476" x2="274.30977332539646" y1="-263.9147843567699" y2="-261.4323295156904" stroke-width="2" stroke="#a9f0f9" stroke-linecap="round"></line><line x1="532.792228166476" x2="530.3097733253965" y1="-263.9147843567699" y2="-261.4323295156904" stroke-width="2" stroke="#a9f0f9" stroke-linecap="round"></line><line x1="20.792228166476" x2="18.309773325396442" y1="-7.914784356769957" y2="-5.432329515690384" stroke-width="2" stroke="#a9f0f9" stroke-linecap="round"></line><line x1="276.792228166476" x2="274.30977332539646" y1="-7.914784356769957" y2="-5.432329515690384" stroke-width="2" stroke="#a9f0f9" stroke-linecap="round"></line><line x1="532.792228166476" x2="530.3097733253965" y1="-7.914784356769957" y2="-5.432329515690384" stroke-width="2" stroke="#a9f0f9" stroke-linecap="round"></line><line x1="20.792228166476" x2="18.309773325396442" y1="248.08521564323004" y2="250.56767048430962" stroke-width="2" stroke="#a9f0f9" stroke-linecap="round"></line><line x1="276.792228166476" x2="274.30977332539646" y1="248.08521564323004" y2="250.56767048430962" stroke-width="2" stroke="#a9f0f9" stroke-linecap="round"></line><line x1="532.792228166476" x2="530.3097733253965" y1="248.08521564323004" y2="250.56767048430962" stroke-width="2" stroke="#a9f0f9" stroke-linecap="round"></line><line x1="253.66795767484217" x2="244.29806048287122" y1="54.33213340610455" y2="63.70203059807552" stroke-width="2" stroke="#a9f0f9" stroke-linecap="round"></line><line x1="253.66795767484217" x2="244.29806048287122" y1="-457.66786659389544" y2="-448.2979694019245" stroke-width="2" stroke="#a9f0f9" stroke-linecap="round"></line><line x1="509.66795767484217" x2="500.2980604828712" y1="-457.66786659389544" y2="-448.2979694019245" stroke-width="2" stroke="#a9f0f9" stroke-linecap="round"></line><line x1="765.6679576748422" x2="756.2980604828713" y1="-457.66786659389544" y2="-448.2979694019245" stroke-width="2" stroke="#a9f0f9" stroke-linecap="round"></line><line x1="253.66795767484217" x2="244.29806048287122" y1="-201.66786659389544" y2="-192.2979694019245" stroke-width="2" stroke="#a9f0f9" stroke-linecap="round"></line><line x1="509.66795767484217" x2="500.2980604828712" y1="-201.66786659389544" y2="-192.2979694019245" stroke-width="2" stroke="#a9f0f9" stroke-linecap="round"></line><line x1="765.6679576748422" x2="756.2980604828713" y1="-201.66786659389544" y2="-192.2979694019245" stroke-width="2" stroke="#a9f0f9" stroke-linecap="round"></line><line x1="253.66795767484217" x2="244.29806048287122" y1="54.33213340610455" y2="63.70203059807552" stroke-width="2" stroke="#a9f0f9" stroke-linecap="round"></line><line x1="509.66795767484217" x2="500.2980604828712" y1="54.33213340610455" y2="63.70203059807552" stroke-width="2" stroke="#a9f0f9" stroke-linecap="round"></line><line x1="765.6679576748422" x2="756.2980604828713" y1="54.33213340610455" y2="63.70203059807552" stroke-width="2" stroke="#a9f0f9" stroke-linecap="round"></line>
  <animateTransform attributeName="transform" type="translate" values="0 0;-256 256" keyTimes="0;1" repeatCount="indefinite" dur="2.564102564102564s"></animateTransform>
</g></g></svg>